<svg viewBox="0 0 800 600" xmlns="http://www.w3.org/2000/svg">
<defs>
<linearGradient id="stone" x1="0" y1="0" x2="1" y2="1">
<stop offset="0" stop-color="#3a3a3a"/><stop offset="1" stop-color="#111"/>
</linearGradient>
<linearGradient id="gold1" x1="0" y1="0" x2="1" y2="0">
<stop offset="0" stop-color="#f5cf52"/><stop offset="1" stop-color="#c98e00"/>
</linearGradient>
<linearGradient id="silver1" x1="0" y1="0" x2="1" y2="0">
<stop offset="0" stop-color="#eaeaea"/><stop offset="1" stop-color="#9a9a9a"/>
</linearGradient>
<linearGradient id="black1" x1="0" y1="0" x2="1" y2="0">
<stop offset="0" stop-color="#3a3a3a"/><stop offset="1" stop-color="#0a0a0a"/>
</linearGradient>
<linearGradient id="bronze1" x1="0" y1="0" x2="1" y2="0">
<stop offset="0" stop-color="#c98a4b"/><stop offset="1" stop-color="#8a5423"/>
</linearGradient>
</defs>
<rect width="800" height="600" fill="url(#stone)"/>
<rect width="800" height="600" fill="#000" opacity="0.05"/>
<g transform="rotate(-18 400 300)">
<rect x="60" y="120" width="700" height="34" rx="6" fill="url(#gold1)"/>
<rect x="60" y="120" width="700" height="8" fill="#fff" opacity="0.35"/>
<rect x="60" y="210" width="700" height="30" rx="6" fill="url(#silver1)"/>
<rect x="60" y="210" width="700" height="7" fill="#fff" opacity="0.4"/>
<rect x="60" y="300" width="700" height="38" rx="6" fill="url(#black1)"/>
<rect x="60" y="300" width="700" height="8" fill="#fff" opacity="0.15"/>
<rect x="60" y="390" width="700" height="30" rx="6" fill="url(#bronze1)"/>
<rect x="60" y="390" width="700" height="7" fill="#fff" opacity="0.3"/>
</g>
<rect width="800" height="600" fill="#000" opacity="0.15"/>
</svg>
