<svg viewBox="0 0 800 600" xmlns="http://www.w3.org/2000/svg">
<defs>
<linearGradient id="kwall" x1="0" y1="0" x2="0" y2="1">
<stop offset="0" stop-color="#3c3c3c"/><stop offset="1" stop-color="#1c1c1c"/>
</linearGradient>
</defs>
<rect width="800" height="600" fill="url(#kwall)"/>
<rect x="0" y="380" width="800" height="220" fill="#161616"/>
<rect x="0" y="380" width="800" height="6" fill="#f5b400" opacity="0.6"/>
<rect x="150" y="260" width="500" height="130" rx="4" fill="#2a2a2a"/>
<rect x="150" y="260" width="500" height="130" rx="4" fill="#fff" opacity="0.04"/>
<rect x="170" y="380" width="90" height="60" fill="#111"/>
<rect x="280" y="380" width="90" height="60" fill="#111"/>
<rect x="390" y="380" width="90" height="60" fill="#111"/>
<rect x="500" y="380" width="90" height="60" fill="#111"/>
<rect x="150" y="255" width="500" height="10" fill="#c98e00"/>
<circle cx="250" cy="150" r="14" fill="#f5cf52"/>
<line x1="250" y1="100" x2="250" y2="136" stroke="#555" stroke-width="3"/>
<circle cx="400" cy="130" r="16" fill="#f5cf52"/>
<line x1="400" y1="70" x2="400" y2="114" stroke="#555" stroke-width="3"/>
<circle cx="550" cy="150" r="14" fill="#f5cf52"/>
<line x1="550" y1="100" x2="550" y2="136" stroke="#555" stroke-width="3"/>
<rect x="620" y="60" width="150" height="300" fill="#4a5a63" opacity="0.5"/>
<rect x="620" y="60" width="150" height="300" fill="#000" opacity="0.15"/>
<rect x="0" y="590" width="800" height="10" fill="#f5b400"/>
</svg>
