<svg viewBox="0 0 800 600" xmlns="http://www.w3.org/2000/svg">
<defs>
<linearGradient id="lwall" x1="0" y1="0" x2="0" y2="1">
<stop offset="0" stop-color="#2e2a26"/><stop offset="1" stop-color="#141210"/>
</linearGradient>
</defs>
<rect width="800" height="600" fill="url(#lwall)"/>
<rect x="0" y="420" width="800" height="180" fill="#4a3f33"/>
<rect x="0" y="420" width="800" height="6" fill="#f5b400" opacity="0.6"/>
<rect x="120" y="300" width="360" height="140" rx="18" fill="#8a7358"/>
<rect x="120" y="300" width="360" height="30" rx="14" fill="#a68a68"/>
<rect x="130" y="260" width="90" height="60" rx="10" fill="#a68a68"/>
<rect x="380" y="260" width="90" height="60" rx="10" fill="#a68a68"/>
<rect x="220" y="400" width="180" height="70" rx="6" fill="#3a332b"/>
<rect x="240" y="392" width="140" height="12" fill="#5a4f43"/>
<rect x="560" y="120" width="180" height="260" fill="#5c6d76" opacity="0.5"/>
<rect x="560" y="120" width="180" height="260" fill="#000" opacity="0.15"/>
<circle cx="150" cy="180" r="60" fill="#3a332b" opacity="0.4"/>
<rect x="60" y="170" width="10" height="230" fill="#2a2620"/>
<ellipse cx="65" cy="165" rx="46" ry="16" fill="#e8dcc0" opacity="0.85"/>
</svg>
