<svg viewBox="0 0 800 600" xmlns="http://www.w3.org/2000/svg">
<defs>
<linearGradient id="osky" x1="0" y1="0" x2="0" y2="1">
<stop offset="0" stop-color="#7fb3d6"/><stop offset="1" stop-color="#c9e2ef"/>
</linearGradient>
</defs>
<rect width="800" height="600" fill="url(#osky)"/>
<rect x="80" y="60" width="260" height="540" fill="#26333a"/>
<rect x="420" y="120" width="220" height="480" fill="#1b262b"/>
<rect x="660" y="180" width="110" height="420" fill="#26333a"/>
<g fill="#5c8fa8" opacity="0.85">
<!-- windows tower 1 -->
</g>
<g>
<!-- generate grid windows tower1 -->
<g fill="#7fbcd9" opacity="0.8">
<rect x="100" y="90" width="30" height="30"/><rect x="150" y="90" width="30" height="30"/><rect x="200" y="90" width="30" height="30"/><rect x="250" y="90" width="30" height="30"/><rect x="300" y="90" width="30" height="30"/>
<rect x="100" y="140" width="30" height="30"/><rect x="150" y="140" width="30" height="30"/><rect x="200" y="140" width="30" height="30"/><rect x="250" y="140" width="30" height="30"/><rect x="300" y="140" width="30" height="30"/>
<rect x="100" y="190" width="30" height="30"/><rect x="150" y="190" width="30" height="30"/><rect x="200" y="190" width="30" height="30"/><rect x="250" y="190" width="30" height="30"/><rect x="300" y="190" width="30" height="30"/>
<rect x="100" y="240" width="30" height="30"/><rect x="150" y="240" width="30" height="30"/><rect x="200" y="240" width="30" height="30"/><rect x="250" y="240" width="30" height="30"/><rect x="300" y="240" width="30" height="30"/>
<rect x="100" y="290" width="30" height="30"/><rect x="150" y="290" width="30" height="30"/><rect x="200" y="290" width="30" height="30"/><rect x="250" y="290" width="30" height="30"/><rect x="300" y="290" width="30" height="30"/>
</g>
<g fill="#f5cf52" opacity="0.9">
<rect x="440" y="150" width="34" height="34"/><rect x="500" y="150" width="34" height="34"/><rect x="560" y="150" width="34" height="34"/>
<rect x="440" y="210" width="34" height="34"/><rect x="500" y="210" width="34" height="34"/><rect x="560" y="210" width="34" height="34"/>
<rect x="440" y="270" width="34" height="34"/><rect x="500" y="270" width="34" height="34"/><rect x="560" y="270" width="34" height="34"/>
<rect x="440" y="330" width="34" height="34"/><rect x="500" y="330" width="34" height="34"/><rect x="560" y="330" width="34" height="34"/>
</g>
<g fill="#7fbcd9" opacity="0.75">
<rect x="680" y="210" width="26" height="26"/><rect x="720" y="210" width="26" height="26"/>
<rect x="680" y="250" width="26" height="26"/><rect x="720" y="250" width="26" height="26"/>
<rect x="680" y="290" width="26" height="26"/><rect x="720" y="290" width="26" height="26"/>
</g>
</g>
<rect y="580" width="800" height="20" fill="#111"/>
<rect y="576" width="800" height="6" fill="#f5b400"/>
</svg>
