<svg viewBox="0 0 800 600" xmlns="http://www.w3.org/2000/svg">
<rect width="800" height="600" fill="#3a3a3a"/>
<g stroke="#111" stroke-width="10">
<line x1="0" y1="150" x2="800" y2="150"/><line x1="0" y1="300" x2="800" y2="300"/><line x1="0" y1="450" x2="800" y2="450"/>
<line x1="200" y1="0" x2="200" y2="600"/><line x1="400" y1="0" x2="400" y2="600"/><line x1="600" y1="0" x2="600" y2="600"/>
</g>
<g fill="#f5b400">
<rect x="190" y="140" width="20" height="20"/>
<rect x="390" y="140" width="20" height="20"/>
<rect x="590" y="140" width="20" height="20"/>
<rect x="190" y="290" width="20" height="20"/>
<rect x="390" y="290" width="20" height="20"/>
<rect x="590" y="290" width="20" height="20"/>
<rect x="190" y="440" width="20" height="20"/>
<rect x="390" y="440" width="20" height="20"/>
<rect x="590" y="440" width="20" height="20"/>
</g>
</svg>
