<svg viewBox="0 0 800 600" xmlns="http://www.w3.org/2000/svg">
<defs>
<linearGradient id="mfloor" x1="0" y1="0" x2="0" y2="1">
<stop offset="0" stop-color="#d8d3c8"/><stop offset="1" stop-color="#b6ae9e"/>
</linearGradient>
</defs>
<rect width="800" height="300" fill="#1c1c1c"/>
<polygon points="400,120 0,300 800,300" fill="url(#mfloor)"/>
<polygon points="400,120 0,300 0,600 400,600" fill="#3a3a3a"/>
<polygon points="400,120 800,300 800,600 400,600" fill="#2a2a2a"/>
<polygon points="380,140 420,140 460,600 340,600" fill="#c9c2b4" opacity="0.6"/>
<g fill="#f5cf52" opacity="0.8">
<circle cx="200" cy="200" r="6"/><circle cx="300" cy="170" r="6"/><circle cx="500" cy="170" r="6"/><circle cx="600" cy="200" r="6"/>
<circle cx="150" cy="230" r="6"/><circle cx="650" cy="230" r="6"/>
</g>
<rect x="40" y="220" width="120" height="140" fill="#4a3f33" opacity="0.7"/>
<rect x="640" y="220" width="120" height="140" fill="#4a3f33" opacity="0.7"/>
<rect x="120" y="260" width="80" height="60" fill="#f5b400" opacity="0.6"/>
<rect x="600" y="260" width="80" height="60" fill="#f5b400" opacity="0.6"/>
</svg>
