<svg viewBox="0 0 800 600" xmlns="http://www.w3.org/2000/svg">
<defs>
<linearGradient id="sky" x1="0" y1="0" x2="0" y2="1">
<stop offset="0" stop-color="#8ec6e8"/><stop offset="1" stop-color="#d9ecf7"/>
</linearGradient>
<linearGradient id="wallst" x1="0" y1="0" x2="1" y2="0">
<stop offset="0" stop-color="#8a7a6a"/><stop offset="0.5" stop-color="#5c4f43"/><stop offset="1" stop-color="#3a3128"/>
</linearGradient>
</defs>
<rect width="800" height="600" fill="url(#sky)"/>
<rect y="360" width="800" height="240" fill="#c9c2b4"/>
<rect x="0" y="140" width="800" height="230" fill="url(#wallst)"/>
<g opacity="0.5">
<rect x="20" y="150" width="60" height="60" fill="#3a3128"/>
<rect x="90" y="150" width="60" height="60" fill="#5c4f43"/>
<rect x="160" y="150" width="60" height="60" fill="#8a7a6a"/>
<rect x="20" y="220" width="60" height="60" fill="#5c4f43"/>
<rect x="90" y="220" width="60" height="60" fill="#8a7a6a"/>
<rect x="160" y="220" width="60" height="60" fill="#3a3128"/>
</g>
<rect x="280" y="140" width="60" height="230" fill="#111"/>
<rect x="290" y="150" width="14" height="210" fill="#f5b400"/>
<rect x="0" y="130" width="800" height="16" fill="#111"/>
<rect x="330" y="100" width="220" height="46" fill="#111"/>
<text x="440" y="132" font-family="Arial, sans-serif" font-size="26" font-weight="900" fill="#f5b400" text-anchor="middle">JOHMARG STRIPS</text>
<rect x="360" y="230" width="200" height="140" fill="#2a3a44"/>
<rect x="360" y="230" width="200" height="140" fill="#fff" opacity="0.08"/>
<rect x="600" y="200" width="180" height="170" fill="#111"/>
<rect x="610" y="210" width="70" height="150" fill="#f5b400" opacity="0.85"/>
<rect x="690" y="210" width="80" height="150" fill="#222"/>
<rect x="0" y="370" width="800" height="10" fill="#111"/>
<circle cx="120" cy="440" r="30" fill="#7a9c6a"/>
<circle cx="700" cy="450" r="24" fill="#7a9c6a"/>
</svg>
