<svg viewBox="0 0 800 600" xmlns="http://www.w3.org/2000/svg">
<defs>
<linearGradient id="twall" x1="0" y1="0" x2="0" y2="1">
<stop offset="0" stop-color="#2a2a2a"/><stop offset="1" stop-color="#0f0f0f"/>
</linearGradient>
</defs>
<rect width="800" height="600" fill="url(#twall)"/>
<rect x="0" y="0" width="800" height="140" fill="#111"/>
<text x="400" y="80" font-family="Arial, sans-serif" font-size="34" font-weight="900" fill="#f5b400" text-anchor="middle">JOHMARG STRIPS</text>
<rect y="500" width="800" height="100" fill="#1c1c1c"/>
<g>
<!-- row of people silhouettes -->
<g fill="#3a3a3a"><circle cx="90" cy="380" r="34"/><rect x="60" y="410" width="60" height="120" rx="14"/></g>
<g fill="#f5b400"><circle cx="190" cy="360" r="36"/><rect x="158" y="392" width="64" height="130" rx="14"/></g>
<g fill="#3a3a3a"><circle cx="295" cy="380" r="34"/><rect x="265" y="410" width="60" height="120" rx="14"/></g>
<g fill="#4a4a4a"><circle cx="400" cy="350" r="40"/><rect x="362" y="386" width="76" height="140" rx="16"/></g>
<g fill="#3a3a3a"><circle cx="505" cy="380" r="34"/><rect x="475" y="410" width="60" height="120" rx="14"/></g>
<g fill="#f5b400"><circle cx="610" cy="360" r="36"/><rect x="578" y="392" width="64" height="130" rx="14"/></g>
<g fill="#3a3a3a"><circle cx="710" cy="380" r="34"/><rect x="680" y="410" width="60" height="120" rx="14"/></g>
</g>
</svg>
