<svg viewBox="0 0 800 600" xmlns="http://www.w3.org/2000/svg">
<rect width="800" height="600" fill="#1a1a1a"/>
<polygon points="400,180 0,600 800,600" fill="#262626"/>
<polygon points="400,180 0,220 0,600 400,600" fill="#2f2f2f"/>
<polygon points="400,180 800,220 800,600 400,600" fill="#232323"/>
<g fill="#3a3a3a" stroke="#111" stroke-width="2">
<rect x="40" y="260" width="140" height="60"/><rect x="40" y="330" width="140" height="60"/><rect x="40" y="400" width="140" height="60"/>
<rect x="620" y="260" width="140" height="60"/><rect x="620" y="330" width="140" height="60"/><rect x="620" y="400" width="140" height="60"/>
</g>
<g fill="#f5b400" opacity="0.75">
<rect x="55" y="275" width="30" height="30"/><rect x="100" y="275" width="30" height="30"/>
<rect x="55" y="345" width="30" height="30"/><rect x="100" y="345" width="30" height="30"/>
<rect x="635" y="275" width="30" height="30"/><rect x="680" y="275" width="30" height="30"/>
<rect x="635" y="345" width="30" height="30"/><rect x="680" y="345" width="30" height="30"/>
</g>
<line x1="0" y1="200" x2="800" y2="200" stroke="#f5b400" stroke-width="4" opacity="0.5"/>
<circle cx="200" cy="140" r="6" fill="#fff" opacity="0.6"/>
<circle cx="400" cy="120" r="6" fill="#fff" opacity="0.6"/>
<circle cx="600" cy="140" r="6" fill="#fff" opacity="0.6"/>
</svg>
